solid 
facet normal -1.0 0.0 0.0
outer loop
vertex 10.0 -2.0 -20.799999237060547
vertex 10.0 2.0 -20.799999237060547
vertex 10.0 -2.0 -22.549999237060547
endloop
endfacet
facet normal -1.0 0.0 0.0
outer loop
vertex 10.0 -2.0 -22.549999237060547
vertex 10.0 2.0 -20.799999237060547
vertex 10.0 2.0 -22.549999237060547
endloop
endfacet
facet normal -0.0 -1.0 -0.0
outer loop
vertex 15.0 -2.0 -20.799999237060547
vertex 10.0 -2.0 -20.799999237060547
vertex 15.0 -2.0 -22.549999237060547
endloop
endfacet
facet normal 0.0 -1.0 0.0
outer loop
vertex 15.0 -2.0 -22.549999237060547
vertex 10.0 -2.0 -20.799999237060547
vertex 10.0 -2.0 -22.549999237060547
endloop
endfacet
facet normal 1.0 0.0 0.0
outer loop
vertex 15.0 2.0 -20.799999237060547
vertex 15.0 -2.0 -20.799999237060547
vertex 15.0 2.0 -22.549999237060547
endloop
endfacet
facet normal 1.0 0.0 0.0
outer loop
vertex 15.0 2.0 -22.549999237060547
vertex 15.0 -2.0 -20.799999237060547
vertex 15.0 -2.0 -22.549999237060547
endloop
endfacet
facet normal -0.0 1.0 0.0
outer loop
vertex 10.0 2.0 -20.799999237060547
vertex 15.0 2.0 -20.799999237060547
vertex 10.0 2.0 -22.549999237060547
endloop
endfacet
facet normal 0.0 1.0 0.0
outer loop
vertex 10.0 2.0 -22.549999237060547
vertex 15.0 2.0 -20.799999237060547
vertex 15.0 2.0 -22.549999237060547
endloop
endfacet
facet normal 0.0 -0.0 1.0
outer loop
vertex 15.0 -2.0 -20.799999237060547
vertex 15.0 2.0 -20.799999237060547
vertex 10.0 -2.0 -20.799999237060547
endloop
endfacet
facet normal 0.0 0.0 1.0
outer loop
vertex 10.0 -2.0 -20.799999237060547
vertex 15.0 2.0 -20.799999237060547
vertex 10.0 2.0 -20.799999237060547
endloop
endfacet
facet normal -0.0 -0.0 -1.0
outer loop
vertex 15.0 2.0 -22.549999237060547
vertex 15.0 -2.0 -22.549999237060547
vertex 10.0 2.0 -22.549999237060547
endloop
endfacet
facet normal 0.0 0.0 -1.0
outer loop
vertex 10.0 2.0 -22.549999237060547
vertex 15.0 -2.0 -22.549999237060547
vertex 10.0 -2.0 -22.549999237060547
endloop
endfacet

endsolid
