solid 
facet normal -1.0 0.0 0.0
outer loop
vertex 0.7479999661445618 -2.5 -19.549999237060547
vertex 0.7479999661445618 2.5 -19.549999237060547
vertex 0.7479999661445618 -2.5 -22.549999237060547
endloop
endfacet
facet normal -1.0 0.0 0.0
outer loop
vertex 0.7479999661445618 -2.5 -22.549999237060547
vertex 0.7479999661445618 2.5 -19.549999237060547
vertex 0.7479999661445618 2.5 -22.549999237060547
endloop
endfacet
facet normal -0.0 -1.0 -0.0
outer loop
vertex 4.947999954223633 -2.5 -19.549999237060547
vertex 0.7479999661445618 -2.5 -19.549999237060547
vertex 4.947999954223633 -2.5 -22.549999237060547
endloop
endfacet
facet normal 0.0 -1.0 0.0
outer loop
vertex 4.947999954223633 -2.5 -22.549999237060547
vertex 0.7479999661445618 -2.5 -19.549999237060547
vertex 0.7479999661445618 -2.5 -22.549999237060547
endloop
endfacet
facet normal 1.0 0.0 0.0
outer loop
vertex 4.947999954223633 2.5 -19.549999237060547
vertex 4.947999954223633 -2.5 -19.549999237060547
vertex 4.947999954223633 2.5 -22.549999237060547
endloop
endfacet
facet normal 1.0 0.0 0.0
outer loop
vertex 4.947999954223633 2.5 -22.549999237060547
vertex 4.947999954223633 -2.5 -19.549999237060547
vertex 4.947999954223633 -2.5 -22.549999237060547
endloop
endfacet
facet normal -0.0 1.0 0.0
outer loop
vertex 0.7479999661445618 2.5 -19.549999237060547
vertex 4.947999954223633 2.5 -19.549999237060547
vertex 0.7479999661445618 2.5 -22.549999237060547
endloop
endfacet
facet normal 0.0 1.0 0.0
outer loop
vertex 0.7479999661445618 2.5 -22.549999237060547
vertex 4.947999954223633 2.5 -19.549999237060547
vertex 4.947999954223633 2.5 -22.549999237060547
endloop
endfacet
facet normal 0.0 -0.0 1.0
outer loop
vertex 4.947999954223633 -2.5 -19.549999237060547
vertex 4.947999954223633 2.5 -19.549999237060547
vertex 0.7479999661445618 -2.5 -19.549999237060547
endloop
endfacet
facet normal 0.0 0.0 1.0
outer loop
vertex 0.7479999661445618 -2.5 -19.549999237060547
vertex 4.947999954223633 2.5 -19.549999237060547
vertex 0.7479999661445618 2.5 -19.549999237060547
endloop
endfacet
facet normal -0.0 -0.0 -1.0
outer loop
vertex 4.947999954223633 2.5 -22.549999237060547
vertex 4.947999954223633 -2.5 -22.549999237060547
vertex 0.7479999661445618 2.5 -22.549999237060547
endloop
endfacet
facet normal 0.0 0.0 -1.0
outer loop
vertex 0.7479999661445618 2.5 -22.549999237060547
vertex 4.947999954223633 -2.5 -22.549999237060547
vertex 0.7479999661445618 -2.5 -22.549999237060547
endloop
endfacet

endsolid
