solid 
facet normal -1.0 0.0 0.0
outer loop
vertex 20.052000045776367 -2.5 -19.549999237060547
vertex 20.052000045776367 2.5 -19.549999237060547
vertex 20.052000045776367 -2.5 -22.549999237060547
endloop
endfacet
facet normal -1.0 0.0 0.0
outer loop
vertex 20.052000045776367 -2.5 -22.549999237060547
vertex 20.052000045776367 2.5 -19.549999237060547
vertex 20.052000045776367 2.5 -22.549999237060547
endloop
endfacet
facet normal -0.0 -1.0 -0.0
outer loop
vertex 24.251998901367188 -2.5 -19.549999237060547
vertex 20.052000045776367 -2.5 -19.549999237060547
vertex 24.251998901367188 -2.5 -22.549999237060547
endloop
endfacet
facet normal 0.0 -1.0 0.0
outer loop
vertex 24.251998901367188 -2.5 -22.549999237060547
vertex 20.052000045776367 -2.5 -19.549999237060547
vertex 20.052000045776367 -2.5 -22.549999237060547
endloop
endfacet
facet normal 1.0 0.0 0.0
outer loop
vertex 24.251998901367188 2.5 -19.549999237060547
vertex 24.251998901367188 -2.5 -19.549999237060547
vertex 24.251998901367188 2.5 -22.549999237060547
endloop
endfacet
facet normal 1.0 0.0 0.0
outer loop
vertex 24.251998901367188 2.5 -22.549999237060547
vertex 24.251998901367188 -2.5 -19.549999237060547
vertex 24.251998901367188 -2.5 -22.549999237060547
endloop
endfacet
facet normal -0.0 1.0 0.0
outer loop
vertex 20.052000045776367 2.5 -19.549999237060547
vertex 24.251998901367188 2.5 -19.549999237060547
vertex 20.052000045776367 2.5 -22.549999237060547
endloop
endfacet
facet normal 0.0 1.0 0.0
outer loop
vertex 20.052000045776367 2.5 -22.549999237060547
vertex 24.251998901367188 2.5 -19.549999237060547
vertex 24.251998901367188 2.5 -22.549999237060547
endloop
endfacet
facet normal 0.0 -0.0 1.0
outer loop
vertex 24.251998901367188 -2.5 -19.549999237060547
vertex 24.251998901367188 2.5 -19.549999237060547
vertex 20.052000045776367 -2.5 -19.549999237060547
endloop
endfacet
facet normal 0.0 0.0 1.0
outer loop
vertex 20.052000045776367 -2.5 -19.549999237060547
vertex 24.251998901367188 2.5 -19.549999237060547
vertex 20.052000045776367 2.5 -19.549999237060547
endloop
endfacet
facet normal -0.0 -0.0 -1.0
outer loop
vertex 24.251998901367188 2.5 -22.549999237060547
vertex 24.251998901367188 -2.5 -22.549999237060547
vertex 20.052000045776367 2.5 -22.549999237060547
endloop
endfacet
facet normal 0.0 0.0 -1.0
outer loop
vertex 20.052000045776367 2.5 -22.549999237060547
vertex 24.251998901367188 -2.5 -22.549999237060547
vertex 20.052000045776367 -2.5 -22.549999237060547
endloop
endfacet

endsolid
