solid 
facet normal -0.0 0.0 1.0
outer loop
vertex -3.863156795501709 71.30606079101562 5.450009822845459
vertex -4.0 57.30000305175781 5.450009822845459
vertex -3.3283393383026123 70.9294662475586 5.450009822845459
endloop
endfacet
facet normal 0.45100355137701587 0.7719528437316939 -0.4479783518205656
outer loop
vertex -3.969702959060669 71.3683090209961 5.450009822845459
vertex -3.863156795501709 71.30606079101562 5.450009822845459
vertex -4.0 71.31260681152344 5.323522567749023
endloop
endfacet
facet normal 0.4510281347676804 0.771938682568426 -0.4479780039271016
outer loop
vertex -3.969702959060669 71.3683090209961 5.450009822845459
vertex -4.0 71.31260681152344 5.323522567749023
vertex -4.0 71.36734771728516 5.417850017547607
endloop
endfacet
facet normal -0.0 0.0 1.0
outer loop
vertex -3.969702959060669 71.3683090209961 5.450009822845459
vertex -4.0 57.30000305175781 5.450009822845459
vertex -3.863156795501709 71.30606079101562 5.450009822845459
endloop
endfacet
facet normal 0.37440924531298375 0.8467051332600265 -0.37803192237598476
outer loop
vertex -3.969702959060669 71.3683090209961 5.450009822845459
vertex -4.0 71.36734771728516 5.417850017547607
vertex -4.0 71.38170623779297 5.450009822845459
endloop
endfacet
facet normal -1.0 0.0 -0.0
outer loop
vertex -4.0 57.30000305175781 5.450009822845459
vertex -4.0 71.38170623779297 5.450009822845459
vertex -4.0 71.36734771728516 5.417850017547607
endloop
endfacet
facet normal 0.0 0.0 1.0
outer loop
vertex -3.969702959060669 71.3683090209961 5.450009822845459
vertex -4.0 71.38170623779297 5.450009822845459
vertex -4.0 57.30000305175781 5.450009822845459
endloop
endfacet
facet normal -1.0 0.0 -0.0
outer loop
vertex -4.0 57.30000305175781 5.450009822845459
vertex -4.0 71.36734771728516 5.417850017547607
vertex -4.0 71.31260681152344 5.323522567749023
endloop
endfacet
facet normal -1.0 0.0 -0.0
outer loop
vertex -4.0 57.30000305175781 5.450009822845459
vertex -4.0 71.31260681152344 5.323522567749023
vertex -4.0 70.89075469970703 4.729419708251953
endloop
endfacet
facet normal -1.0 0.0 -0.0
outer loop
vertex -4.0 57.30000305175781 5.450009822845459
vertex -4.0 70.89075469970703 4.729419708251953
vertex -4.0 70.85398864746094 4.686756134033203
endloop
endfacet
facet normal 0.5966370981250584 0.5320351443416893 -0.6008017795631329
outer loop
vertex -3.197932720184326 70.81643676757812 5.450009822845459
vertex -2.8885726928710938 70.46951293945312 5.450009822845459
vertex -4.0 70.85398864746094 4.686756134033203
endloop
endfacet
facet normal -0.9999999999999999 0.0 -0.0
outer loop
vertex -4.0 57.30000305175781 5.450009822845459
vertex -4.0 70.85398864746094 4.686756134033203
vertex -4.0 70.31048583984375 4.205461025238037
endloop
endfacet
facet normal 0.5966370348851091 0.5320355500140234 -0.6008014831246515
outer loop
vertex -2.8885726928710938 70.46951293945312 5.450009822845459
vertex -4.0 70.31048583984375 4.205461025238037
vertex -4.0 70.85398864746094 4.686756134033203
endloop
endfacet
facet normal 0.49791147820093945 0.7071046442606073 -0.5020828437029445
outer loop
vertex -3.863156795501709 71.30606079101562 5.450009822845459
vertex -3.3283393383026123 70.9294662475586 5.450009822845459
vertex -4.0 71.31260681152344 5.323522567749023
endloop
endfacet
facet normal 0.4979106146897254 0.7071012867673102 -0.502088428497724
outer loop
vertex -3.3283393383026123 70.9294662475586 5.450009822845459
vertex -4.0 70.89075469970703 4.729419708251953
vertex -4.0 71.31260681152344 5.323522567749023
endloop
endfacet
facet normal 0.0 0.0 1.0
outer loop
vertex -2.8389663696289062 70.41387939453125 5.450009822845459
vertex -2.8885726928710938 70.46951293945312 5.450009822845459
vertex -4.0 57.30000305175781 5.450009822845459
endloop
endfacet
facet normal 0.5489217308608436 0.6331937162698518 -0.5456653288098026
outer loop
vertex -3.3283393383026123 70.9294662475586 5.450009822845459
vertex -4.0 70.85398864746094 4.686756134033203
vertex -4.0 70.89075469970703 4.729419708251953
endloop
endfacet
facet normal -0.0 0.0 1.0
outer loop
vertex -3.197932720184326 70.81643676757812 5.450009822845459
vertex -4.0 57.30000305175781 5.450009822845459
vertex -2.8885726928710938 70.46951293945312 5.450009822845459
endloop
endfacet
facet normal 0.5488767811433505 0.633261028936198 -0.5456324297110485
outer loop
vertex -3.197932720184326 70.81643676757812 5.450009822845459
vertex -4.0 70.85398864746094 4.686756134033203
vertex -3.3283393383026123 70.9294662475586 5.450009822845459
endloop
endfacet
facet normal 0.0 0.0 1.0
outer loop
vertex -3.197932720184326 70.81643676757812 5.450009822845459
vertex -3.3283393383026123 70.9294662475586 5.450009822845459
vertex -4.0 57.30000305175781 5.450009822845459
endloop
endfacet
facet normal 0.5966504460498482 0.5320105869742338 -0.6008102700319365
outer loop
vertex -2.8389663696289062 70.41387939453125 5.450009822845459
vertex -4.0 70.31048583984375 4.205461025238037
vertex -2.8885726928710938 70.46951293945312 5.450009822845459
endloop
endfacet
facet normal 0.625366538170243 0.4705497179978721 -0.622494703454647
outer loop
vertex -2.715507984161377 70.24980163574219 5.450009822845459
vertex -4.0 70.29793548583984 4.195976734161377
vertex -2.8389663696289062 70.41387939453125 5.450009822845459
endloop
endfacet
facet normal -1.0 0.0 -0.0
outer loop
vertex -4.0 57.30000305175781 5.450009822845459
vertex -4.0 70.31048583984375 4.205461025238037
vertex -4.0 70.29793548583984 4.195976734161377
endloop
endfacet
facet normal 0.6254130644065466 0.4704438340878115 -0.622527989602373
outer loop
vertex -2.8389663696289062 70.41387939453125 5.450009822845459
vertex -4.0 70.29793548583984 4.195976734161377
vertex -4.0 70.31048583984375 4.205461025238037
endloop
endfacet
facet normal 0.6532813512954849 -0.3826838801139791 -0.6532813512954849
outer loop
vertex -3.9131813049316406 58.04118347167969 3.9131813049316406
vertex -2.3763527870178223 58.04118347167969 5.450009822845459
vertex -2.5176331996917725 57.80000305175781 5.450009822845459
endloop
endfacet
facet normal 0.6532811367297451 -0.38268443133867297 -0.6532812429605558
outer loop
vertex -3.9838216304779053 57.80000305175781 3.9838216304779053
vertex -3.9131813049316406 58.04118347167969 3.9131813049316406
vertex -2.5176331996917725 57.80000305175781 5.450009822845459
endloop
endfacet
facet normal 0.5609858917063739 -0.6087606724022571 -0.5609859829289469
outer loop
vertex -3.9838216304779053 57.80000305175781 3.9838216304779053
vertex -2.5176331996917725 57.80000305175781 5.450009822845459
vertex -2.7423784732818604 57.5928955078125 5.450009822845459
endloop
endfacet
facet normal 0.7044895942564222 -0.3816059423993627 -0.598390605131728
outer loop
vertex -3.9838216304779053 57.80000305175781 3.9838216304779053
vertex -4.0 57.807640075683594 3.959904432296753
vertex -3.9131813049316406 58.04118347167969 3.9131813049316406
endloop
endfacet
facet normal 0.5609858503698454 -0.6087607346459443 -0.5609859567209787
outer loop
vertex -3.9838216304779053 57.80000305175781 3.9838216304779053
vertex -2.7423784732818604 57.5928955078125 5.450009822845459
vertex -4.0 57.5928955078125 4.192388534545898
endloop
endfacet
facet normal -1.0 0.0 0.0
outer loop
vertex -4.0 57.77018737792969 4.0
vertex -4.0 57.5928955078125 4.192388534545898
vertex -4.0 57.30000305175781 5.450009822845459
endloop
endfacet
facet normal -1.0 0.0 0.0
outer loop
vertex -4.0 57.807640075683594 3.959904432296753
vertex -4.0 57.80000305175781 3.964775323867798
vertex -4.0 57.30000305175781 5.450009822845459
endloop
endfacet
facet normal 0.7044655770193446 -0.3816524606348028 -0.598389212875869
outer loop
vertex -3.9838216304779053 57.80000305175781 3.9838216304779053
vertex -4.0 57.80000305175781 3.964775323867798
vertex -4.0 57.807640075683594 3.959904432296753
endloop
endfacet
facet normal 0.5609352955861253 -0.6087831726810433 -0.5610121592497876
outer loop
vertex -3.9838216304779053 57.80000305175781 3.9838216304779053
vertex -4.0 57.5928955078125 4.192388534545898
vertex -4.0 57.77018737792969 4.0
endloop
endfacet
facet normal -1.0 0.0 0.0
outer loop
vertex -4.0 57.80000305175781 3.964775323867798
vertex -4.0 57.77018737792969 4.0
vertex -4.0 57.30000305175781 5.450009822845459
endloop
endfacet
facet normal 0.6053857500841556 -0.6075171653090043 -0.5142285362073523
outer loop
vertex -3.9838216304779053 57.80000305175781 3.9838216304779053
vertex -4.0 57.77018737792969 4.0
vertex -4.0 57.80000305175781 3.964775323867798
endloop
endfacet
facet normal -1.0 0.0 -0.0
outer loop
vertex -4.0 57.30000305175781 5.450009822845459
vertex -4.0 70.29793548583984 4.195976734161377
vertex -4.0 69.90087127685547 4.0
endloop
endfacet
facet normal -1.0 0.0 -0.0
outer loop
vertex -4.0 57.30000305175781 5.450009822845459
vertex -4.0 69.90087127685547 4.0
vertex -4.0 69.6800765991211 3.881145715713501
endloop
endfacet
facet normal -1.0 0.0 -0.0
outer loop
vertex -4.0 57.30000305175781 5.450009822845459
vertex -4.0 69.6800765991211 3.881145715713501
vertex -4.0 69.15504455566406 3.793506622314453
endloop
endfacet
facet normal -1.0 0.0 -0.0
outer loop
vertex -4.0 57.30000305175781 5.450009822845459
vertex -4.0 69.15504455566406 3.793506622314453
vertex -4.0 69.0 3.755016565322876
endloop
endfacet
facet normal -1.0 0.0 0.0
outer loop
vertex -4.0 58.30000305175781 3.755016565322876
vertex -4.0 57.30000305175781 5.450009822845459
vertex -4.0 69.0 3.755016565322876
endloop
endfacet
facet normal -1.0 0.0 0.0
outer loop
vertex -4.0 58.30000305175781 3.755016565322876
vertex -4.0 58.252601623535156 3.768117904663086
vertex -4.0 57.30000305175781 5.450009822845459
endloop
endfacet
facet normal -1.0 0.0 0.0
outer loop
vertex -4.0 57.807640075683594 3.959904432296753
vertex -4.0 57.30000305175781 5.450009822845459
vertex -4.0 58.04118347167969 3.8109703063964844
endloop
endfacet
facet normal 0.7044860319005336 -0.38160551206482346 -0.5983950735248281
outer loop
vertex -3.9131813049316406 58.04118347167969 3.9131813049316406
vertex -4.0 57.807640075683594 3.959904432296753
vertex -4.0 58.04118347167969 3.8109703063964844
endloop
endfacet
facet normal -0.9999999999999999 0.0 0.0
outer loop
vertex -4.0 58.04118347167969 3.8109703063964844
vertex -4.0 57.30000305175781 5.450009822845459
vertex -4.0 58.252601623535156 3.768117904663086
endloop
endfacet
facet normal 0.7556843964873553 -0.13010349801688825 -0.641883301472558
outer loop
vertex -3.9131813049316406 58.04118347167969 3.9131813049316406
vertex -4.0 58.04118347167969 3.8109703063964844
vertex -4.0 58.252601623535156 3.768117904663086
endloop
endfacet
facet normal 0.0 0.0 1.0
outer loop
vertex -2.5176331996917725 57.80000305175781 5.450009822845459
vertex -2.3763527870178223 58.04118347167969 5.450009822845459
vertex -2.3281643390655518 62.594547271728516 5.450009822845459
endloop
endfacet
facet normal 0.0 0.0 1.0
outer loop
vertex -2.7423784732818604 57.5928955078125 5.450009822845459
vertex -2.5176331996917725 57.80000305175781 5.450009822845459
vertex -2.3281643390655518 62.594547271728516 5.450009822845459
endloop
endfacet
facet normal 0.0 0.0 0.9999999999999999
outer loop
vertex -3.035271167755127 57.43397521972656 5.450009822845459
vertex -2.7423784732818604 57.5928955078125 5.450009822845459
vertex -2.3281643390655518 62.594547271728516 5.450009822845459
endloop
endfacet
facet normal 0.0 0.0 1.0
outer loop
vertex -3.386660575866699 57.332374572753906 5.450009822845459
vertex -3.035271167755127 57.43397521972656 5.450009822845459
vertex -2.3281643390655518 62.594547271728516 5.450009822845459
endloop
endfacet
facet normal 0.43046264390587524 -0.7933497048249722 -0.4304627255125504
outer loop
vertex -3.035271167755127 57.43397521972656 5.450009822845459
vertex -4.0 57.5928955078125 4.192388534545898
vertex -2.7423784732818604 57.5928955078125 5.450009822845459
endloop
endfacet
facet normal 0.26762981803968416 -0.925607131018388 -0.26762981803968416
outer loop
vertex -3.386660575866699 57.332374572753906 5.450009822845459
vertex -4.0 57.43397521972656 4.485280990600586
vertex -3.035271167755127 57.43397521972656 5.450009822845459
endloop
endfacet
facet normal -0.9999999999999999 0.0 0.0
outer loop
vertex -4.0 57.5928955078125 4.192388534545898
vertex -4.0 57.43397521972656 4.485280990600586
vertex -4.0 57.30000305175781 5.450009822845459
endloop
endfacet
facet normal 0.4304628795721032 -0.7933494933640443 -0.4304628795721032
outer loop
vertex -3.035271167755127 57.43397521972656 5.450009822845459
vertex -4.0 57.43397521972656 4.485280990600586
vertex -4.0 57.5928955078125 4.192388534545898
endloop
endfacet
facet normal 0.6656772476869023 0.3302816144015082 -0.6691695279227261
outer loop
vertex -3.9422731399536133 69.66756439208984 3.9422731399536133
vertex -2.5344269275665283 69.88483428955078 5.450009822845459
vertex -2.513054609298706 69.84175872802734 5.450009822845459
endloop
endfacet
facet normal 0.6656776095479688 0.33028052001469066 -0.6691697081049975
outer loop
vertex -3.9422731399536133 69.66756439208984 3.9422731399536133
vertex -2.715507984161377 70.24980163574219 5.450009822845459
vertex -2.5344269275665283 69.88483428955078 5.450009822845459
endloop
endfacet
facet normal 0.0 0.0 0.9999999999999999
outer loop
vertex -2.715507984161377 70.24980163574219 5.450009822845459
vertex -2.8389663696289062 70.41387939453125 5.450009822845459
vertex -4.0 57.30000305175781 5.450009822845459
endloop
endfacet
facet normal 0.0 0.0 1.0
outer loop
vertex -2.513054609298706 69.84175872802734 5.450009822845459
vertex -2.5344269275665283 69.88483428955078 5.450009822845459
vertex -4.0 57.30000305175781 5.450009822845459
endloop
endfacet
facet normal -0.0 0.0 1.0
outer loop
vertex -2.715507984161377 70.24980163574219 5.450009822845459
vertex -4.0 57.30000305175781 5.450009822845459
vertex -2.5344269275665283 69.88483428955078 5.450009822845459
endloop
endfacet
facet normal 0.6656783856234836 0.3302789246697651 -0.6691697234877683
outer loop
vertex -3.9422731399536133 69.66756439208984 3.9422731399536133
vertex -4.0 70.29793548583984 4.195976734161377
vertex -2.715507984161377 70.24980163574219 5.450009822845459
endloop
endfacet
facet normal 0.6656747992378685 0.33027984857842213 -0.6691728351350179
outer loop
vertex -3.9422731399536133 69.66756439208984 3.9422731399536133
vertex -4.0 69.90087127685547 4.0
vertex -4.0 70.29793548583984 4.195976734161377
endloop
endfacet
facet normal 0.7192077688827642 0.3293266959600656 -0.6117876367717012
outer loop
vertex -3.9422731399536133 69.66756439208984 3.9422731399536133
vertex -4.0 69.6800765991211 3.881145715713501
vertex -4.0 69.90087127685547 4.0
endloop
endfacet
facet normal 0.7338056056364214 0.11185210323224475 -0.670088382334068
outer loop
vertex -3.9422731399536133 69.66756439208984 3.9422731399536133
vertex -4.0 69.15504455566406 3.793506622314453
vertex -4.0 69.6800765991211 3.881145715713501
endloop
endfacet
facet normal 0.7002756336840564 0.11196359842953167 -0.7050377220369869
outer loop
vertex -3.889087200164795 69.0 3.889087200164795
vertex -3.9422731399536133 69.66756439208984 3.9422731399536133
vertex -2.4009346961975098 69.52153015136719 5.450009822845459
endloop
endfacet
facet normal 0.7338094934550136 0.11185050686917564 -0.6700843912735207
outer loop
vertex -3.889087200164795 69.0 3.889087200164795
vertex -4.0 69.15504455566406 3.793506622314453
vertex -3.9422731399536133 69.66756439208984 3.9422731399536133
endloop
endfacet
facet normal 0.0 0.0 1.0
outer loop
vertex -2.360555410385132 58.12602996826172 5.450009822845459
vertex -2.33089280128479 58.2607307434082 5.450009822845459
vertex -2.3281643390655518 62.594547271728516 5.450009822845459
endloop
endfacet
facet normal 0.7077193260110953 -0.0004455623421590621 -0.7064935647722493
outer loop
vertex -3.889087200164795 58.30000305175781 3.889087200164795
vertex -2.3281643390655518 62.594547271728516 5.450009822845459
vertex -2.33089280128479 58.2607307434082 5.450009822845459
endloop
endfacet
facet normal 0.0 0.0 1.0
outer loop
vertex -2.3763527870178223 58.04118347167969 5.450009822845459
vertex -2.360555410385132 58.12602996826172 5.450009822845459
vertex -2.3281643390655518 62.594547271728516 5.450009822845459
endloop
endfacet
facet normal 0.7610439617809615 0.15629668998025958 -0.6295898926586682
outer loop
vertex -3.889087200164795 69.0 3.889087200164795
vertex -4.0 69.0 3.755016565322876
vertex -4.0 69.15504455566406 3.793506622314453
endloop
endfacet
facet normal 0.7071067271840669 0.0 -0.7071068351890241
outer loop
vertex -3.889087200164795 58.30000305175781 3.889087200164795
vertex -3.889087200164795 69.0 3.889087200164795
vertex -2.3281643390655518 62.594547271728516 5.450009822845459
endloop
endfacet
facet normal 0.6973947446968856 -0.15357408061000524 -0.7000396930417285
outer loop
vertex -3.889087200164795 58.30000305175781 3.889087200164795
vertex -2.33089280128479 58.2607307434082 5.450009822845459
vertex -2.360555410385132 58.12602996826172 5.450009822845459
endloop
endfacet
facet normal 0.7010571932975745 -0.13052824771463895 -0.7010571932975745
outer loop
vertex -3.9131813049316406 58.04118347167969 3.9131813049316406
vertex -2.360555410385132 58.12602996826172 5.450009822845459
vertex -2.3763527870178223 58.04118347167969 5.450009822845459
endloop
endfacet
facet normal 0.7705134548919543 0.0 -0.6374237333442052
outer loop
vertex -3.889087200164795 58.30000305175781 3.889087200164795
vertex -4.0 69.0 3.755016565322876
vertex -3.889087200164795 69.0 3.889087200164795
endloop
endfacet
facet normal 0.7010573356619416 -0.1305260626635803 -0.7010574577594356
outer loop
vertex -3.9131813049316406 58.04118347167969 3.9131813049316406
vertex -3.889087200164795 58.30000305175781 3.889087200164795
vertex -2.360555410385132 58.12602996826172 5.450009822845459
endloop
endfacet
facet normal 0.7705134548919543 0.0 -0.6374237333442052
outer loop
vertex -3.889087200164795 58.30000305175781 3.889087200164795
vertex -4.0 58.30000305175781 3.755016565322876
vertex -4.0 69.0 3.755016565322876
endloop
endfacet
facet normal 0.7556850811024922 -0.13010276569924556 -0.6418826439128317
outer loop
vertex -3.9131813049316406 58.04118347167969 3.9131813049316406
vertex -4.0 58.252601623535156 3.768117904663086
vertex -3.889087200164795 58.30000305175781 3.889087200164795
endloop
endfacet
facet normal 0.7588269057891911 -0.17350619758329852 -0.6277557856767134
outer loop
vertex -3.889087200164795 58.30000305175781 3.889087200164795
vertex -4.0 58.252601623535156 3.768117904663086
vertex -4.0 58.30000305175781 3.755016565322876
endloop
endfacet
facet normal -1.0 0.0 0.0
outer loop
vertex -4.0 57.30000305175781 5.192388534545898
vertex -4.0 57.30000305175781 5.450009822845459
vertex -4.0 57.313087463378906 5.051816463470459
endloop
endfacet
facet normal 0.0 0.0 1.0
outer loop
vertex -3.7423784732818604 57.30000305175781 5.450009822845459
vertex -3.386660575866699 57.332374572753906 5.450009822845459
vertex -2.3281643390655518 62.594547271728516 5.450009822845459
endloop
endfacet
facet normal -1.0 0.0 0.0
outer loop
vertex -4.0 57.313087463378906 5.051816463470459
vertex -4.0 57.30000305175781 5.450009822845459
vertex -4.0 57.33338928222656 4.830511569976807
endloop
endfacet
facet normal -1.0 0.0 0.0
outer loop
vertex -4.0 57.405174255371094 4.584887504577637
vertex -4.0 57.30000305175781 5.450009822845459
vertex -4.0 57.43397521972656 4.485280990600586
endloop
endfacet
facet normal 0.267639643335346 -0.9256026212496418 -0.2676355896571323
outer loop
vertex -3.386660575866699 57.332374572753906 5.450009822845459
vertex -4.0 57.405174255371094 4.584887504577637
vertex -4.0 57.43397521972656 4.485280990600586
endloop
endfacet
facet normal 0.09025298464283885 -0.9917545096650695 -0.09098016993860214
outer loop
vertex -3.7423784732818604 57.30000305175781 5.450009822845459
vertex -4.0 57.33338928222656 4.830511569976807
vertex -3.386660575866699 57.332374572753906 5.450009822845459
endloop
endfacet
facet normal -0.9999999999999999 0.0 0.0
outer loop
vertex -4.0 57.405174255371094 4.584887504577637
vertex -4.0 57.33338928222656 4.830511569976807
vertex -4.0 57.30000305175781 5.450009822845459
endloop
endfacet
facet normal 0.2711912349586016 -0.9238781130748019 -0.2700084188742484
outer loop
vertex -3.386660575866699 57.332374572753906 5.450009822845459
vertex -4.0 57.33338928222656 4.830511569976807
vertex -4.0 57.405174255371094 4.584887504577637
endloop
endfacet
facet normal 0.6776287650203631 0.28993629869004683 -0.6758374061258327
outer loop
vertex -3.9422731399536133 69.66756439208984 3.9422731399536133
vertex -2.513054609298706 69.84175872802734 5.450009822845459
vertex -2.42497181892395 69.63589477539062 5.450009822845459
endloop
endfacet
facet normal 0.0 0.0 1.0
outer loop
vertex -2.42497181892395 69.63589477539062 5.450009822845459
vertex -2.513054609298706 69.84175872802734 5.450009822845459
vertex -4.0 57.30000305175781 5.450009822845459
endloop
endfacet
facet normal 0.6987649137979459 0.14686620214350213 -0.7001127865657742
outer loop
vertex -3.9422731399536133 69.66756439208984 3.9422731399536133
vertex -2.42497181892395 69.63589477539062 5.450009822845459
vertex -2.4009346961975098 69.52153015136719 5.450009822845459
endloop
endfacet
facet normal 0.0 0.0 1.0
outer loop
vertex -2.4009346961975098 69.52153015136719 5.450009822845459
vertex -2.42497181892395 69.63589477539062 5.450009822845459
vertex -4.0 57.30000305175781 5.450009822845459
endloop
endfacet
facet normal 0.7002760312214079 0.11196202848794692 -0.7050375764976347
outer loop
vertex -3.889087200164795 69.0 3.889087200164795
vertex -2.4009346961975098 69.52153015136719 5.450009822845459
vertex -2.340524911880493 69.14369201660156 5.450009822845459
endloop
endfacet
facet normal 0.0 0.0 0.9999999999999999
outer loop
vertex -2.340524911880493 69.14369201660156 5.450009822845459
vertex -2.4009346961975098 69.52153015136719 5.450009822845459
vertex -4.0 57.30000305175781 5.450009822845459
endloop
endfacet
facet normal 0.7002749190583323 0.11197083006417326 -0.7050372833776853
outer loop
vertex -3.889087200164795 69.0 3.889087200164795
vertex -2.340524911880493 69.14369201660156 5.450009822845459
vertex -2.3363211154937744 69.11740112304688 5.450009822845459
endloop
endfacet
facet normal -0.0 0.0 1.0
outer loop
vertex -2.340524911880493 69.14369201660156 5.450009822845459
vertex -4.0 57.30000305175781 5.450009822845459
vertex -2.3363211154937744 69.11740112304688 5.450009822845459
endloop
endfacet
facet normal 0.7062549377677297 0.04906906747731505 -0.7062550456425829
outer loop
vertex -3.889087200164795 69.0 3.889087200164795
vertex -2.3363211154937744 69.11740112304688 5.450009822845459
vertex -2.3281643390655518 69.0 5.450009822845459
endloop
endfacet
facet normal 0.0 0.0 1.0
outer loop
vertex -2.3281643390655518 69.0 5.450009822845459
vertex -2.3363211154937744 69.11740112304688 5.450009822845459
vertex -4.0 57.30000305175781 5.450009822845459
endloop
endfacet
facet normal 0.7071067271840669 0.0 -0.7071068351890242
outer loop
vertex -2.3281643390655518 62.594547271728516 5.450009822845459
vertex -3.889087200164795 69.0 3.889087200164795
vertex -2.3281643390655518 69.0 5.450009822845459
endloop
endfacet
facet normal 0.0 -0.0 1.0
outer loop
vertex -2.3281643390655518 62.594547271728516 5.450009822845459
vertex -2.3281643390655518 69.0 5.450009822845459
vertex -4.0 57.30000305175781 5.450009822845459
endloop
endfacet
facet normal 0.0 -0.0 1.0
outer loop
vertex -3.7423784732818604 57.30000305175781 5.450009822845459
vertex -2.3281643390655518 62.594547271728516 5.450009822845459
vertex -4.0 57.30000305175781 5.450009822845459
endloop
endfacet
facet normal -0.0 -1.0 -0.0
outer loop
vertex -3.7423784732818604 57.30000305175781 5.450009822845459
vertex -4.0 57.30000305175781 5.450009822845459
vertex -4.0 57.30000305175781 5.192388534545898
endloop
endfacet
facet normal 0.09228355717529066 -0.9914471616718717 -0.09228364258016819
outer loop
vertex -3.7423784732818604 57.30000305175781 5.450009822845459
vertex -4.0 57.30000305175781 5.192388534545898
vertex -4.0 57.313087463378906 5.051816463470459
endloop
endfacet
facet normal 0.09025366749353425 -0.9917544219067985 -0.09098044917606571
outer loop
vertex -3.7423784732818604 57.30000305175781 5.450009822845459
vertex -4.0 57.313087463378906 5.051816463470459
vertex -4.0 57.33338928222656 4.830511569976807
endloop
endfacet

endsolid
