solid 
facet normal 0.0 -0.13052692362797647 0.991444765081856
outer loop
vertex -4.794258117675781 24.765226364135742 -6.027220726013184
vertex -4.0 24.765226364135742 -6.027220726013184
vertex -4.0 24.972280502319336 -5.9999613761901855
endloop
endfacet
facet normal 0.0 -0.3826820310830478 0.9238801129400682
outer loop
vertex -4.794258117675781 24.572280883789062 -6.107141017913818
vertex -4.0 24.765226364135742 -6.027220726013184
vertex -4.794258117675781 24.765226364135742 -6.027220726013184
endloop
endfacet
facet normal 1.0 0.0 -0.0
outer loop
vertex -4.0 24.972280502319336 -16.0
vertex -4.0 26.321704864501953 -16.0
vertex -4.0 24.765226364135742 -15.97274112701416
endloop
endfacet
facet normal -1.0 0.0 0.0
outer loop
vertex -4.794258117675781 24.765226364135742 -15.97274112701416
vertex -4.794258117675781 24.765226364135742 -6.027220726013184
vertex -4.794258117675781 24.972280502319336 -16.0
endloop
endfacet
facet normal -1.0 0.0 0.0
outer loop
vertex -4.794258117675781 24.765226364135742 -15.97274112701416
vertex -4.794258117675781 24.572280883789062 -6.107141017913818
vertex -4.794258117675781 24.765226364135742 -6.027220726013184
endloop
endfacet
facet normal 1.0 -0.0 -0.0
outer loop
vertex -4.0 24.765226364135742 -15.97274112701416
vertex -4.0 26.321704864501953 -16.0
vertex -4.0 24.572280883789062 -15.892820358276367
endloop
endfacet
facet normal 0.0 -0.13052467927096056 -0.9914450605561624
outer loop
vertex -4.794258117675781 24.765226364135742 -15.97274112701416
vertex -4.794258117675781 24.972280502319336 -16.0
vertex -4.0 24.765226364135742 -15.97274112701416
endloop
endfacet
facet normal 0.0 -0.6087591672180075 -0.7933550758191682
outer loop
vertex -4.794258117675781 24.572280883789062 -15.892820358276367
vertex -4.0 24.572280883789062 -15.892820358276367
vertex -4.0 24.40659523010254 -15.76568603515625
endloop
endfacet
facet normal -1.0 0.0 0.0
outer loop
vertex -4.794258117675781 24.572280883789062 -15.892820358276367
vertex -4.794258117675781 24.572280883789062 -6.107141017913818
vertex -4.794258117675781 24.765226364135742 -15.97274112701416
endloop
endfacet
facet normal 0.0 -0.3826839799481024 -0.9238793056947863
outer loop
vertex -4.794258117675781 24.765226364135742 -15.97274112701416
vertex -4.0 24.765226364135742 -15.97274112701416
vertex -4.0 24.572280883789062 -15.892820358276367
endloop
endfacet
facet normal 0.0 -0.3826839799481024 -0.9238793056947863
outer loop
vertex -4.794258117675781 24.572280883789062 -15.892820358276367
vertex -4.794258117675781 24.765226364135742 -15.97274112701416
vertex -4.0 24.572280883789062 -15.892820358276367
endloop
endfacet
facet normal 1.0 -0.0 0.0
outer loop
vertex -4.0 24.40659523010254 -6.234276294708252
vertex -4.0 24.280933380126953 -6.397973537445068
vertex -4.0 24.765226364135742 -6.027220726013184
endloop
endfacet
facet normal -5.3491061618485054e-05 -0.7932303687790545 0.6089216527479967
outer loop
vertex -4.794258117675781 24.279460906982422 -6.399961471557617
vertex -4.0 24.280933380126953 -6.397973537445068
vertex -4.0 24.40659523010254 -6.234276294708252
endloop
endfacet
facet normal 0.0 -0.7933542296737663 0.6087602699410867
outer loop
vertex -4.794258117675781 24.279460906982422 -6.399961471557617
vertex -4.0 24.40659523010254 -6.234276294708252
vertex -4.794258117675781 24.40659523010254 -6.234276294708252
endloop
endfacet
facet normal 1.0 0.0 -0.0
outer loop
vertex -4.0 24.264719009399414 -6.435553073883057
vertex -4.0 24.765226364135742 -6.027220726013184
vertex -4.0 24.280933380126953 -6.397973537445068
endloop
endfacet
facet normal 0.0007106558423450016 -0.9181790740544395 0.39616496934585915
outer loop
vertex -4.794258117675781 24.279460906982422 -6.399961471557617
vertex -4.0 24.264719009399414 -6.435553073883057
vertex -4.0 24.280933380126953 -6.397973537445068
endloop
endfacet
facet normal -1.0 0.0 0.0
outer loop
vertex -4.794258117675781 24.17228126525879 -6.799961566925049
vertex -4.794258117675781 24.279460906982422 -6.399961471557617
vertex -4.794258117675781 24.40659523010254 -6.234276294708252
endloop
endfacet
facet normal 1.0 0.0 -0.0
outer loop
vertex -4.0 24.199541091918945 -6.592906475067139
vertex -4.0 24.765226364135742 -6.027220726013184
vertex -4.0 24.264719009399414 -6.435553073883057
endloop
endfacet
facet normal 5.955998822786523e-07 -0.9238805858145913 0.3826808894556051
outer loop
vertex -4.794258117675781 24.199541091918945 -6.592906475067139
vertex -4.0 24.264719009399414 -6.435553073883057
vertex -4.794258117675781 24.279460906982422 -6.399961471557617
endloop
endfacet
facet normal -1.0 0.0 0.0
outer loop
vertex -4.794258117675781 24.17228126525879 -6.799961566925049
vertex -4.794258117675781 24.199541091918945 -6.592906475067139
vertex -4.794258117675781 24.279460906982422 -6.399961471557617
endloop
endfacet
facet normal 0.0 -0.9238795229115833 0.38268345554082345
outer loop
vertex -4.794258117675781 24.199541091918945 -6.592906475067139
vertex -4.0 24.199541091918945 -6.592906475067139
vertex -4.0 24.264719009399414 -6.435553073883057
endloop
endfacet
facet normal 0.0 -0.9914445474057187 0.13052857702231127
outer loop
vertex -4.794258117675781 24.17228126525879 -6.799961566925049
vertex -4.0 24.199541091918945 -6.592906475067139
vertex -4.794258117675781 24.199541091918945 -6.592906475067139
endloop
endfacet
facet normal 1.0 0.0 -0.0
outer loop
vertex -4.0 24.40659523010254 -6.234276294708252
vertex -4.0 24.765226364135742 -6.027220726013184
vertex -4.0 24.572280883789062 -6.107141017913818
endloop
endfacet
facet normal 0.0 -0.3826820310830478 0.9238801129400682
outer loop
vertex -4.794258117675781 24.572280883789062 -6.107141017913818
vertex -4.0 24.572280883789062 -6.107141017913818
vertex -4.0 24.765226364135742 -6.027220726013184
endloop
endfacet
facet normal 0.0 -0.6087620414127074 0.793352870376753
outer loop
vertex -4.794258117675781 24.40659523010254 -6.234276294708252
vertex -4.0 24.40659523010254 -6.234276294708252
vertex -4.0 24.572280883789062 -6.107141017913818
endloop
endfacet
facet normal 1.0 -0.0 -0.0
outer loop
vertex -4.0 24.572280883789062 -15.892820358276367
vertex -4.0 26.321704864501953 -16.0
vertex -4.0 24.40659523010254 -15.76568603515625
endloop
endfacet
facet normal 0.0 -0.6087620414127074 0.793352870376753
outer loop
vertex -4.794258117675781 24.40659523010254 -6.234276294708252
vertex -4.0 24.572280883789062 -6.107141017913818
vertex -4.794258117675781 24.572280883789062 -6.107141017913818
endloop
endfacet
facet normal 0.9999999999999999 -0.0 -0.0
outer loop
vertex -4.0 24.40659523010254 -15.76568603515625
vertex -4.0 26.321704864501953 -16.0
vertex -4.0 24.279460906982422 -15.59999942779541
endloop
endfacet
facet normal -0.9999999999999999 0.0 0.0
outer loop
vertex -4.794258117675781 24.572280883789062 -15.892820358276367
vertex -4.794258117675781 24.40659523010254 -6.234276294708252
vertex -4.794258117675781 24.572280883789062 -6.107141017913818
endloop
endfacet
facet normal -1.0 0.0 0.0
outer loop
vertex -4.794258117675781 24.40659523010254 -15.76568603515625
vertex -4.794258117675781 24.17228126525879 -6.799961566925049
vertex -4.794258117675781 24.40659523010254 -6.234276294708252
endloop
endfacet
facet normal 0.0 -0.7933567680961773 -0.6087569617803056
outer loop
vertex -4.794258117675781 24.40659523010254 -15.76568603515625
vertex -4.0 24.40659523010254 -15.76568603515625
vertex -4.0 24.279460906982422 -15.59999942779541
endloop
endfacet
facet normal -1.0 0.0 0.0
outer loop
vertex -4.794258117675781 24.40659523010254 -15.76568603515625
vertex -4.794258117675781 24.40659523010254 -6.234276294708252
vertex -4.794258117675781 24.572280883789062 -15.892820358276367
endloop
endfacet
facet normal 0.0 -0.6087591672180075 -0.7933550758191682
outer loop
vertex -4.794258117675781 24.40659523010254 -15.76568603515625
vertex -4.794258117675781 24.572280883789062 -15.892820358276367
vertex -4.0 24.40659523010254 -15.76568603515625
endloop
endfacet
facet normal 0.0 0.0 1.0
outer loop
vertex -4.794258117675781 24.972280502319336 -5.9999613761901855
vertex -4.0 24.972280502319336 -5.9999613761901855
vertex -4.0 26.321704864501953 -5.9999613761901855
endloop
endfacet
facet normal 0.0 -0.0 1.0
outer loop
vertex -4.794258117675781 24.972280502319336 -5.9999613761901855
vertex -4.0 26.321704864501953 -5.9999613761901855
vertex -4.794258117675781 25.50495147705078 -5.9999613761901855
endloop
endfacet
facet normal 0.0 -0.13052692362797647 0.991444765081856
outer loop
vertex -4.794258117675781 24.765226364135742 -6.027220726013184
vertex -4.0 24.972280502319336 -5.9999613761901855
vertex -4.794258117675781 24.972280502319336 -5.9999613761901855
endloop
endfacet
facet normal -0.716910540089078 0.6971651723294751 0.0
outer loop
vertex -4.794258117675781 25.50495147705078 -5.9999613761901855
vertex -4.0 26.321704864501953 -5.9999613761901855
vertex -4.0 26.321704864501953 -16.0
endloop
endfacet
facet normal -1.0 0.0 0.0
outer loop
vertex -4.794258117675781 25.50495147705078 -16.0
vertex -4.794258117675781 24.972280502319336 -5.9999613761901855
vertex -4.794258117675781 25.50495147705078 -5.9999613761901855
endloop
endfacet
facet normal -1.0 0.0 0.0
outer loop
vertex -4.794258117675781 24.972280502319336 -16.0
vertex -4.794258117675781 24.765226364135742 -6.027220726013184
vertex -4.794258117675781 24.972280502319336 -5.9999613761901855
endloop
endfacet
facet normal -0.716910540089078 0.6971651723294751 0.0
outer loop
vertex -4.794258117675781 25.50495147705078 -16.0
vertex -4.794258117675781 25.50495147705078 -5.9999613761901855
vertex -4.0 26.321704864501953 -16.0
endloop
endfacet
facet normal 0.0 -0.13052467927096056 -0.9914450605561624
outer loop
vertex -4.794258117675781 24.972280502319336 -16.0
vertex -4.0 24.972280502319336 -16.0
vertex -4.0 24.765226364135742 -15.97274112701416
endloop
endfacet
facet normal -1.0 0.0 0.0
outer loop
vertex -4.794258117675781 24.972280502319336 -16.0
vertex -4.794258117675781 24.972280502319336 -5.9999613761901855
vertex -4.794258117675781 25.50495147705078 -16.0
endloop
endfacet
facet normal 0.0 0.0 -1.0
outer loop
vertex -4.794258117675781 25.50495147705078 -16.0
vertex -4.0 26.321704864501953 -16.0
vertex -4.0 24.972280502319336 -16.0
endloop
endfacet
facet normal 0.0 0.0 -1.0
outer loop
vertex -4.794258117675781 24.972280502319336 -16.0
vertex -4.794258117675781 25.50495147705078 -16.0
vertex -4.0 24.972280502319336 -16.0
endloop
endfacet
facet normal 1.0 0.0 -0.0
outer loop
vertex -4.0 24.199541091918945 -6.592906475067139
vertex -4.0 24.972280502319336 -5.9999613761901855
vertex -4.0 24.765226364135742 -6.027220726013184
endloop
endfacet
facet normal 1.0 0.0 -0.0
outer loop
vertex -4.0 24.17228126525879 -6.799961566925049
vertex -4.0 24.972280502319336 -5.9999613761901855
vertex -4.0 24.199541091918945 -6.592906475067139
endloop
endfacet
facet normal 0.0 -0.9914445474057187 0.13052857702231127
outer loop
vertex -4.794258117675781 24.17228126525879 -6.799961566925049
vertex -4.0 24.17228126525879 -6.799961566925049
vertex -4.0 24.199541091918945 -6.592906475067139
endloop
endfacet
facet normal 0.0 -1.0 0.0
outer loop
vertex -4.794258117675781 24.17228126525879 -15.199999809265137
vertex -4.0 24.17228126525879 -6.799961566925049
vertex -4.794258117675781 24.17228126525879 -6.799961566925049
endloop
endfacet
facet normal 1.0 -0.0 -0.0
outer loop
vertex -4.0 24.279460906982422 -15.59999942779541
vertex -4.0 26.321704864501953 -16.0
vertex -4.0 24.199541091918945 -15.407054901123047
endloop
endfacet
facet normal -1.0 0.0 0.0
outer loop
vertex -4.794258117675781 24.17228126525879 -15.199999809265137
vertex -4.794258117675781 24.17228126525879 -6.799961566925049
vertex -4.794258117675781 24.40659523010254 -15.76568603515625
endloop
endfacet
facet normal 0.0 -0.9238802514447444 -0.3826816967015746
outer loop
vertex -4.794258117675781 24.279460906982422 -15.59999942779541
vertex -4.0 24.279460906982422 -15.59999942779541
vertex -4.0 24.199541091918945 -15.407054901123047
endloop
endfacet
facet normal -1.0 -0.0 -0.0
outer loop
vertex -4.794258117675781 24.17228126525879 -15.199999809265137
vertex -4.794258117675781 24.40659523010254 -15.76568603515625
vertex -4.794258117675781 24.279460906982422 -15.59999942779541
endloop
endfacet
facet normal 0.0 -0.7933567680961773 -0.6087569617803056
outer loop
vertex -4.794258117675781 24.279460906982422 -15.59999942779541
vertex -4.794258117675781 24.40659523010254 -15.76568603515625
vertex -4.0 24.279460906982422 -15.59999942779541
endloop
endfacet
facet normal 1.0 0.0 -0.0
outer loop
vertex -4.0 24.17228126525879 -6.799961566925049
vertex -4.0 26.321704864501953 -5.9999613761901855
vertex -4.0 24.972280502319336 -5.9999613761901855
endloop
endfacet
facet normal 1.0 0.0 0.0
outer loop
vertex -4.0 26.321704864501953 -5.9999613761901855
vertex -4.0 24.17228126525879 -6.799961566925049
vertex -4.0 26.321704864501953 -16.0
endloop
endfacet
facet normal 1.0 0.0 0.0
outer loop
vertex -4.0 26.321704864501953 -16.0
vertex -4.0 24.17228126525879 -6.799961566925049
vertex -4.0 24.17228126525879 -15.199999809265137
endloop
endfacet
facet normal 0.9999999999999999 -0.0 -0.0
outer loop
vertex -4.0 24.199541091918945 -15.407054901123047
vertex -4.0 26.321704864501953 -16.0
vertex -4.0 24.17228126525879 -15.199999809265137
endloop
endfacet
facet normal -0.0 -0.9238802514447444 -0.3826816967015746
outer loop
vertex -4.794258117675781 24.279460906982422 -15.59999942779541
vertex -4.0 24.199541091918945 -15.407054901123047
vertex -4.794258117675781 24.199541091918945 -15.407054901123047
endloop
endfacet
facet normal 0.0 -1.0 0.0
outer loop
vertex -4.794258117675781 24.17228126525879 -15.199999809265137
vertex -4.0 24.17228126525879 -15.199999809265137
vertex -4.0 24.17228126525879 -6.799961566925049
endloop
endfacet
facet normal -1.0 -0.0 -0.0
outer loop
vertex -4.794258117675781 24.17228126525879 -15.199999809265137
vertex -4.794258117675781 24.279460906982422 -15.59999942779541
vertex -4.794258117675781 24.199541091918945 -15.407054901123047
endloop
endfacet
facet normal 0.0 -0.9914445474057187 -0.13052857702231127
outer loop
vertex -4.794258117675781 24.199541091918945 -15.407054901123047
vertex -4.0 24.199541091918945 -15.407054901123047
vertex -4.0 24.17228126525879 -15.199999809265137
endloop
endfacet
facet normal 0.0 -0.9914445474057187 -0.13052857702231127
outer loop
vertex -4.794258117675781 24.17228126525879 -15.199999809265137
vertex -4.794258117675781 24.199541091918945 -15.407054901123047
vertex -4.0 24.17228126525879 -15.199999809265137
endloop
endfacet

endsolid
